  0
SECTION
  2
BLOCKS
  0
ENDSEC
  0
SECTION
  2
ENTITIES
  0
LINE
  8
0
 10
239.465
 20
-138.255
 11
239.465
 21
138.255
  0
LINE
  8
0
 10
239.465
 20
138.255
 11
0
 21
276.51
  0
LINE
  8
0
 10
0
 20
276.51
 11
-239.465
 21
138.255
  0
LINE
  8
0
 10
-239.465
 20
138.255
 11
-239.465
 21
-138.255
  0
LINE
  8
0
 10
-239.465
 20
-138.255
 11
0
 21
-276.51
  0
LINE
  8
0
 10
0
 20
-276.51
 11
239.465
 21
-138.255
  0
LINE
  8
0
 10
0.563187
 20
217.275
 11
-12.8068
 21
227.665
  0
LINE
  8
0
 10
-12.8068
 20
227.665
 11
-13
 21
228.06
  0
LINE
  8
0
 10
-13
 20
228.06
 11
-13
 21
246.47
  0
LINE
  8
0
 10
-13
 20
246.47
 11
-12.5
 21
246.97
  0
LINE
  8
0
 10
-12.5
 20
246.97
 11
12.5
 21
246.97
  0
LINE
  8
0
 10
12.5
 20
246.97
 11
13
 21
246.47
  0
LINE
  8
0
 10
13
 20
246.47
 11
13
 21
221.47
  0
LINE
  8
0
 10
13
 20
221.47
 11
12.6553
 21
220.995
  0
LINE
  8
0
 10
12.6553
 20
220.995
 11
1.02528
 21
217.195
  0
LINE
  8
0
 10
1.02528
 20
217.195
 11
0.563187
 21
217.275
  0
LINE
  8
0
 10
-26.0269
 20
-215.24
 11
-31.1596
 21
-206.35
  0
LINE
  8
0
 10
-31.1596
 20
-206.35
 11
-26.7602
 21
-203.81
  0
LINE
  8
0
 10
-26.7602
 20
-203.81
 11
-42.5218
 21
-176.51
  0
LINE
  8
0
 10
-42.5218
 20
-176.51
 11
-46.9212
 21
-179.05
  0
LINE
  8
0
 10
-46.9212
 20
-179.05
 11
-50.5874
 21
-172.7
  0
LINE
  8
0
 10
-50.5874
 20
-172.7
 11
-57.9198
 21
-172.7
  0
LINE
  8
0
 10
-57.9198
 20
-172.7
 11
-57.9198
 21
-167.62
  0
LINE
  8
0
 10
-57.9198
 20
-167.62
 11
-89.4431
 21
-167.62
  0
LINE
  8
0
 10
-89.4431
 20
-167.62
 11
-89.4431
 21
-172.7
  0
LINE
  8
0
 10
-89.4431
 20
-172.7
 11
-99.7084
 21
-172.7
  0
LINE
  8
0
 10
-99.7084
 20
-172.7
 11
-104.841
 21
-163.81
  0
LINE
  8
0
 10
-104.841
 20
-163.81
 11
-100.442
 21
-161.27
  0
LINE
  8
0
 10
-100.442
 20
-161.27
 11
-116.203
 21
-133.97
  0
LINE
  8
0
 10
-116.203
 20
-133.97
 11
-120.603
 21
-136.51
  0
LINE
  8
0
 10
-120.603
 20
-136.51
 11
-124.269
 21
-130.16
  0
LINE
  8
0
 10
-124.269
 20
-130.16
 11
-131.601
 21
-130.16
  0
LINE
  8
0
 10
-131.601
 20
-130.16
 11
-131.601
 21
-125.08
  0
LINE
  8
0
 10
-131.601
 20
-125.08
 11
-163.125
 21
-125.08
  0
LINE
  8
0
 10
-163.125
 20
-125.08
 11
-163.125
 21
-130.16
  0
LINE
  8
0
 10
-163.125
 20
-130.16
 11
-173.39
 21
-130.16
  0
LINE
  8
0
 10
-173.39
 20
-130.16
 11
-178.522
 21
-121.27
  0
LINE
  8
0
 10
-178.522
 20
-121.27
 11
-174.123
 21
-118.73
  0
LINE
  8
0
 10
-174.123
 20
-118.73
 11
-189.885
 21
-91.43
  0
LINE
  8
0
 10
-189.885
 20
-91.43
 11
-194.284
 21
-93.97
  0
LINE
  8
0
 10
-194.284
 20
-93.97
 11
-199.417
 21
-85.08
  0
LINE
  8
0
 10
-199.417
 20
-85.08
 11
-194.284
 21
-76.19
  0
LINE
  8
0
 10
-194.284
 20
-76.19
 11
-189.885
 21
-78.73
  0
LINE
  8
0
 10
-189.885
 20
-78.73
 11
-174.123
 21
-51.43
  0
LINE
  8
0
 10
-174.123
 20
-51.43
 11
-178.522
 21
-48.89
  0
LINE
  8
0
 10
-178.522
 20
-48.89
 11
-174.856
 21
-42.54
  0
LINE
  8
0
 10
-174.856
 20
-42.54
 11
-178.522
 21
-36.19
  0
LINE
  8
0
 10
-178.522
 20
-36.19
 11
-174.123
 21
-33.65
  0
LINE
  8
0
 10
-174.123
 20
-33.65
 11
-189.885
 21
-6.34999
  0
LINE
  8
0
 10
-189.885
 20
-6.34999
 11
-194.284
 21
-8.88998
  0
LINE
  8
0
 10
-194.284
 20
-8.88998
 11
-199.417
 21
0
  0
LINE
  8
0
 10
-199.417
 20
0
 11
-194.284
 21
8.88998
  0
LINE
  8
0
 10
-194.284
 20
8.88998
 11
-189.885
 21
6.34999
  0
LINE
  8
0
 10
-189.885
 20
6.34999
 11
-174.123
 21
33.65
  0
LINE
  8
0
 10
-174.123
 20
33.65
 11
-178.522
 21
36.19
  0
LINE
  8
0
 10
-178.522
 20
36.19
 11
-174.856
 21
42.54
  0
LINE
  8
0
 10
-174.856
 20
42.54
 11
-178.522
 21
48.89
  0
LINE
  8
0
 10
-178.522
 20
48.89
 11
-174.123
 21
51.43
  0
LINE
  8
0
 10
-174.123
 20
51.43
 11
-189.885
 21
78.73
  0
LINE
  8
0
 10
-189.885
 20
78.73
 11
-194.284
 21
76.19
  0
LINE
  8
0
 10
-194.284
 20
76.19
 11
-199.417
 21
85.08
  0
LINE
  8
0
 10
-199.417
 20
85.08
 11
-194.284
 21
93.97
  0
LINE
  8
0
 10
-194.284
 20
93.97
 11
-189.885
 21
91.43
  0
LINE
  8
0
 10
-189.885
 20
91.43
 11
-174.123
 21
118.73
  0
LINE
  8
0
 10
-174.123
 20
118.73
 11
-178.522
 21
121.27
  0
LINE
  8
0
 10
-178.522
 20
121.27
 11
-173.39
 21
130.16
  0
LINE
  8
0
 10
-173.39
 20
130.16
 11
-163.125
 21
130.16
  0
LINE
  8
0
 10
-163.125
 20
130.16
 11
-163.125
 21
125.08
  0
LINE
  8
0
 10
-163.125
 20
125.08
 11
-131.601
 21
125.08
  0
LINE
  8
0
 10
-131.601
 20
125.08
 11
-131.601
 21
130.16
  0
LINE
  8
0
 10
-131.601
 20
130.16
 11
-124.269
 21
130.16
  0
LINE
  8
0
 10
-124.269
 20
130.16
 11
-120.603
 21
136.51
  0
LINE
  8
0
 10
-120.603
 20
136.51
 11
-116.203
 21
133.97
  0
LINE
  8
0
 10
-116.203
 20
133.97
 11
-100.442
 21
161.27
  0
LINE
  8
0
 10
-100.442
 20
161.27
 11
-104.841
 21
163.81
  0
LINE
  8
0
 10
-104.841
 20
163.81
 11
-99.7084
 21
172.7
  0
LINE
  8
0
 10
-99.7084
 20
172.7
 11
-89.4431
 21
172.7
  0
LINE
  8
0
 10
-89.4431
 20
172.7
 11
-89.4431
 21
167.62
  0
LINE
  8
0
 10
-89.4431
 20
167.62
 11
-57.9198
 21
167.62
  0
LINE
  8
0
 10
-57.9198
 20
167.62
 11
-57.9198
 21
172.7
  0
LINE
  8
0
 10
-57.9198
 20
172.7
 11
-50.5874
 21
172.7
  0
LINE
  8
0
 10
-50.5874
 20
172.7
 11
-46.9212
 21
179.05
  0
LINE
  8
0
 10
-46.9212
 20
179.05
 11
-42.5218
 21
176.51
  0
LINE
  8
0
 10
-42.5218
 20
176.51
 11
-26.7602
 21
203.81
  0
LINE
  8
0
 10
-26.7602
 20
203.81
 11
-31.1596
 21
206.35
  0
LINE
  8
0
 10
-31.1596
 20
206.35
 11
-26.0269
 21
215.24
  0
LINE
  8
0
 10
-26.0269
 20
215.24
 11
-15.7617
 21
215.24
  0
LINE
  8
0
 10
-15.7617
 20
215.24
 11
-15.7617
 21
210.16
  0
LINE
  8
0
 10
-15.7617
 20
210.16
 11
15.7617
 21
210.16
  0
LINE
  8
0
 10
15.7617
 20
210.16
 11
15.7617
 21
215.24
  0
LINE
  8
0
 10
15.7617
 20
215.24
 11
26.0269
 21
215.24
  0
LINE
  8
0
 10
26.0269
 20
215.24
 11
31.1596
 21
206.35
  0
LINE
  8
0
 10
31.1596
 20
206.35
 11
26.7602
 21
203.81
  0
LINE
  8
0
 10
26.7602
 20
203.81
 11
42.5218
 21
176.51
  0
LINE
  8
0
 10
42.5218
 20
176.51
 11
46.9212
 21
179.05
  0
LINE
  8
0
 10
46.9212
 20
179.05
 11
50.5874
 21
172.7
  0
LINE
  8
0
 10
50.5874
 20
172.7
 11
57.9198
 21
172.7
  0
LINE
  8
0
 10
57.9198
 20
172.7
 11
57.9198
 21
167.62
  0
LINE
  8
0
 10
57.9198
 20
167.62
 11
89.4431
 21
167.62
  0
LINE
  8
0
 10
89.4431
 20
167.62
 11
89.4431
 21
172.7
  0
LINE
  8
0
 10
89.4431
 20
172.7
 11
99.7084
 21
172.7
  0
LINE
  8
0
 10
99.7084
 20
172.7
 11
104.841
 21
163.81
  0
LINE
  8
0
 10
104.841
 20
163.81
 11
100.442
 21
161.27
  0
LINE
  8
0
 10
100.442
 20
161.27
 11
116.203
 21
133.97
  0
LINE
  8
0
 10
116.203
 20
133.97
 11
120.603
 21
136.51
  0
LINE
  8
0
 10
120.603
 20
136.51
 11
124.269
 21
130.16
  0
LINE
  8
0
 10
124.269
 20
130.16
 11
131.601
 21
130.16
  0
LINE
  8
0
 10
131.601
 20
130.16
 11
131.601
 21
125.08
  0
LINE
  8
0
 10
131.601
 20
125.08
 11
163.125
 21
125.08
  0
LINE
  8
0
 10
163.125
 20
125.08
 11
163.125
 21
130.16
  0
LINE
  8
0
 10
163.125
 20
130.16
 11
173.39
 21
130.16
  0
LINE
  8
0
 10
173.39
 20
130.16
 11
178.522
 21
121.27
  0
LINE
  8
0
 10
178.522
 20
121.27
 11
174.123
 21
118.73
  0
LINE
  8
0
 10
174.123
 20
118.73
 11
189.885
 21
91.43
  0
LINE
  8
0
 10
189.885
 20
91.43
 11
194.284
 21
93.97
  0
LINE
  8
0
 10
194.284
 20
93.97
 11
199.417
 21
85.08
  0
LINE
  8
0
 10
199.417
 20
85.08
 11
194.284
 21
76.19
  0
LINE
  8
0
 10
194.284
 20
76.19
 11
189.885
 21
78.73
  0
LINE
  8
0
 10
189.885
 20
78.73
 11
174.123
 21
51.43
  0
LINE
  8
0
 10
174.123
 20
51.43
 11
178.522
 21
48.89
  0
LINE
  8
0
 10
178.522
 20
48.89
 11
174.856
 21
42.54
  0
LINE
  8
0
 10
174.856
 20
42.54
 11
178.522
 21
36.19
  0
LINE
  8
0
 10
178.522
 20
36.19
 11
174.123
 21
33.65
  0
LINE
  8
0
 10
174.123
 20
33.65
 11
189.885
 21
6.34999
  0
LINE
  8
0
 10
189.885
 20
6.34999
 11
194.284
 21
8.88998
  0
LINE
  8
0
 10
194.284
 20
8.88998
 11
199.417
 21
0
  0
LINE
  8
0
 10
199.417
 20
0
 11
194.284
 21
-8.88998
  0
LINE
  8
0
 10
194.284
 20
-8.88998
 11
189.885
 21
-6.34999
  0
LINE
  8
0
 10
189.885
 20
-6.34999
 11
174.123
 21
-33.65
  0
LINE
  8
0
 10
174.123
 20
-33.65
 11
178.522
 21
-36.19
  0
LINE
  8
0
 10
178.522
 20
-36.19
 11
174.856
 21
-42.54
  0
LINE
  8
0
 10
174.856
 20
-42.54
 11
178.522
 21
-48.89
  0
LINE
  8
0
 10
178.522
 20
-48.89
 11
174.123
 21
-51.43
  0
LINE
  8
0
 10
174.123
 20
-51.43
 11
189.885
 21
-78.73
  0
LINE
  8
0
 10
189.885
 20
-78.73
 11
194.284
 21
-76.19
  0
LINE
  8
0
 10
194.284
 20
-76.19
 11
199.417
 21
-85.08
  0
LINE
  8
0
 10
199.417
 20
-85.08
 11
194.284
 21
-93.97
  0
LINE
  8
0
 10
194.284
 20
-93.97
 11
189.885
 21
-91.43
  0
LINE
  8
0
 10
189.885
 20
-91.43
 11
174.123
 21
-118.73
  0
LINE
  8
0
 10
174.123
 20
-118.73
 11
178.522
 21
-121.27
  0
LINE
  8
0
 10
178.522
 20
-121.27
 11
173.39
 21
-130.16
  0
LINE
  8
0
 10
173.39
 20
-130.16
 11
163.125
 21
-130.16
  0
LINE
  8
0
 10
163.125
 20
-130.16
 11
163.125
 21
-125.08
  0
LINE
  8
0
 10
163.125
 20
-125.08
 11
131.601
 21
-125.08
  0
LINE
  8
0
 10
131.601
 20
-125.08
 11
131.601
 21
-130.16
  0
LINE
  8
0
 10
131.601
 20
-130.16
 11
124.269
 21
-130.16
  0
LINE
  8
0
 10
124.269
 20
-130.16
 11
120.603
 21
-136.51
  0
LINE
  8
0
 10
120.603
 20
-136.51
 11
116.203
 21
-133.97
  0
LINE
  8
0
 10
116.203
 20
-133.97
 11
100.442
 21
-161.27
  0
LINE
  8
0
 10
100.442
 20
-161.27
 11
104.841
 21
-163.81
  0
LINE
  8
0
 10
104.841
 20
-163.81
 11
99.7084
 21
-172.7
  0
LINE
  8
0
 10
99.7084
 20
-172.7
 11
89.4431
 21
-172.7
  0
LINE
  8
0
 10
89.4431
 20
-172.7
 11
89.4431
 21
-167.62
  0
LINE
  8
0
 10
89.4431
 20
-167.62
 11
57.9198
 21
-167.62
  0
LINE
  8
0
 10
57.9198
 20
-167.62
 11
57.9198
 21
-172.7
  0
LINE
  8
0
 10
57.9198
 20
-172.7
 11
50.5874
 21
-172.7
  0
LINE
  8
0
 10
50.5874
 20
-172.7
 11
46.9212
 21
-179.05
  0
LINE
  8
0
 10
46.9212
 20
-179.05
 11
42.5218
 21
-176.51
  0
LINE
  8
0
 10
42.5218
 20
-176.51
 11
26.7602
 21
-203.81
  0
LINE
  8
0
 10
26.7602
 20
-203.81
 11
31.1596
 21
-206.35
  0
LINE
  8
0
 10
31.1596
 20
-206.35
 11
26.0269
 21
-215.24
  0
LINE
  8
0
 10
26.0269
 20
-215.24
 11
15.7617
 21
-215.24
  0
LINE
  8
0
 10
15.7617
 20
-215.24
 11
15.7617
 21
-210.16
  0
LINE
  8
0
 10
15.7617
 20
-210.16
 11
-15.7617
 21
-210.16
  0
LINE
  8
0
 10
-15.7617
 20
-210.16
 11
-15.7617
 21
-215.24
  0
LINE
  8
0
 10
-15.7617
 20
-215.24
 11
-26.0269
 21
-215.24
  0
LINE
  8
0
 10
46.9212
 20
161.27
 11
42.5219
 21
163.81
  0
LINE
  8
0
 10
42.5219
 20
163.81
 11
26.7602
 21
136.51
  0
LINE
  8
0
 10
26.7602
 20
136.51
 11
31.1596
 21
133.97
  0
LINE
  8
0
 10
31.1596
 20
133.97
 11
46.9212
 21
161.27
  0
LINE
  8
0
 10
-26.7602
 20
136.51
 11
-42.5219
 21
163.81
  0
LINE
  8
0
 10
-42.5219
 20
163.81
 11
-46.9212
 21
161.27
  0
LINE
  8
0
 10
-46.9212
 20
161.27
 11
-31.1596
 21
133.97
  0
LINE
  8
0
 10
-31.1596
 20
133.97
 11
-26.7602
 21
136.51
  0
LINE
  8
0
 10
15.7617
 20
130.16
 11
-15.7617
 21
130.16
  0
LINE
  8
0
 10
-15.7617
 20
130.16
 11
-15.7617
 21
125.08
  0
LINE
  8
0
 10
-15.7617
 20
125.08
 11
15.7617
 21
125.08
  0
LINE
  8
0
 10
15.7617
 20
125.08
 11
15.7617
 21
130.16
  0
LINE
  8
0
 10
120.603
 20
118.73
 11
116.203
 21
121.27
  0
LINE
  8
0
 10
116.203
 20
121.27
 11
100.442
 21
93.97
  0
LINE
  8
0
 10
100.442
 20
93.97
 11
104.841
 21
91.43
  0
LINE
  8
0
 10
104.841
 20
91.43
 11
120.603
 21
118.73
  0
LINE
  8
0
 10
46.9212
 20
93.97
 11
31.1596
 21
121.27
  0
LINE
  8
0
 10
31.1596
 20
121.27
 11
26.7602
 21
118.73
  0
LINE
  8
0
 10
26.7602
 20
118.73
 11
42.5218
 21
91.43
  0
LINE
  8
0
 10
42.5218
 20
91.43
 11
46.9212
 21
93.97
  0
LINE
  8
0
 10
-26.7602
 20
118.73
 11
-31.1596
 21
121.27
  0
LINE
  8
0
 10
-31.1596
 20
121.27
 11
-46.9212
 21
93.97
  0
LINE
  8
0
 10
-46.9212
 20
93.97
 11
-42.5218
 21
91.43
  0
LINE
  8
0
 10
-42.5218
 20
91.43
 11
-26.7602
 21
118.73
  0
LINE
  8
0
 10
-100.442
 20
93.97
 11
-116.203
 21
121.27
  0
LINE
  8
0
 10
-116.203
 20
121.27
 11
-120.603
 21
118.73
  0
LINE
  8
0
 10
-120.603
 20
118.73
 11
-104.841
 21
91.43
  0
LINE
  8
0
 10
-104.841
 20
91.43
 11
-100.442
 21
93.97
  0
LINE
  8
0
 10
89.4431
 20
87.62
 11
57.9198
 21
87.62
  0
LINE
  8
0
 10
57.9198
 20
87.62
 11
57.9198
 21
82.54
  0
LINE
  8
0
 10
57.9198
 20
82.54
 11
89.4431
 21
82.54
  0
LINE
  8
0
 10
89.4431
 20
82.54
 11
89.4431
 21
87.62
  0
LINE
  8
0
 10
-57.9198
 20
87.62
 11
-89.4431
 21
87.62
  0
LINE
  8
0
 10
-89.4431
 20
87.62
 11
-89.4431
 21
82.54
  0
LINE
  8
0
 10
-89.4431
 20
82.54
 11
-57.9198
 21
82.54
  0
LINE
  8
0
 10
-57.9198
 20
82.54
 11
-57.9198
 21
87.62
  0
LINE
  8
0
 10
46.9212
 20
76.19
 11
42.5219
 21
78.73
  0
LINE
  8
0
 10
42.5219
 20
78.73
 11
26.7602
 21
51.43
  0
LINE
  8
0
 10
26.7602
 20
51.43
 11
31.1596
 21
48.89
  0
LINE
  8
0
 10
31.1596
 20
48.89
 11
46.9212
 21
76.19
  0
LINE
  8
0
 10
120.603
 20
51.43
 11
104.841
 21
78.73
  0
LINE
  8
0
 10
104.841
 20
78.73
 11
100.442
 21
76.19
  0
LINE
  8
0
 10
100.442
 20
76.19
 11
116.203
 21
48.89
  0
LINE
  8
0
 10
116.203
 20
48.89
 11
120.603
 21
51.43
  0
LINE
  8
0
 10
-26.7602
 20
51.43
 11
-42.5219
 21
78.73
  0
LINE
  8
0
 10
-42.5219
 20
78.73
 11
-46.9212
 21
76.19
  0
LINE
  8
0
 10
-46.9212
 20
76.19
 11
-31.1596
 21
48.89
  0
LINE
  8
0
 10
-31.1596
 20
48.89
 11
-26.7602
 21
51.43
  0
LINE
  8
0
 10
-100.442
 20
76.19
 11
-104.841
 21
78.73
  0
LINE
  8
0
 10
-104.841
 20
78.73
 11
-120.603
 21
51.43
  0
LINE
  8
0
 10
-120.603
 20
51.43
 11
-116.203
 21
48.89
  0
LINE
  8
0
 10
-116.203
 20
48.89
 11
-100.442
 21
76.19
  0
LINE
  8
0
 10
15.7617
 20
45.08
 11
-15.7617
 21
45.08
  0
LINE
  8
0
 10
-15.7617
 20
45.08
 11
-15.7617
 21
40
  0
LINE
  8
0
 10
-15.7617
 20
40
 11
15.7617
 21
40
  0
LINE
  8
0
 10
15.7617
 20
40
 11
15.7617
 21
45.08
  0
LINE
  8
0
 10
163.125
 20
45.08
 11
131.601
 21
45.08
  0
LINE
  8
0
 10
131.601
 20
45.08
 11
131.601
 21
40
  0
LINE
  8
0
 10
131.601
 20
40
 11
163.125
 21
40
  0
LINE
  8
0
 10
163.125
 20
40
 11
163.125
 21
45.08
  0
LINE
  8
0
 10
-131.601
 20
45.08
 11
-163.125
 21
45.08
  0
LINE
  8
0
 10
-163.125
 20
45.08
 11
-163.125
 21
40
  0
LINE
  8
0
 10
-163.125
 20
40
 11
-131.601
 21
40
  0
LINE
  8
0
 10
-131.601
 20
40
 11
-131.601
 21
45.08
  0
LINE
  8
0
 10
120.603
 20
33.65
 11
116.203
 21
36.19
  0
LINE
  8
0
 10
116.203
 20
36.19
 11
100.442
 21
8.88998
  0
LINE
  8
0
 10
100.442
 20
8.88998
 11
104.841
 21
6.34999
  0
LINE
  8
0
 10
104.841
 20
6.34999
 11
120.603
 21
33.65
  0
LINE
  8
0
 10
46.9212
 20
8.88998
 11
31.1596
 21
36.19
  0
LINE
  8
0
 10
31.1596
 20
36.19
 11
26.7602
 21
33.65
  0
LINE
  8
0
 10
26.7602
 20
33.65
 11
42.5219
 21
6.34999
  0
LINE
  8
0
 10
42.5219
 20
6.34999
 11
46.9212
 21
8.88998
  0
LINE
  8
0
 10
-26.7602
 20
33.65
 11
-31.1596
 21
36.19
  0
LINE
  8
0
 10
-31.1596
 20
36.19
 11
-46.9212
 21
8.88998
  0
LINE
  8
0
 10
-46.9212
 20
8.88998
 11
-42.5219
 21
6.34999
  0
LINE
  8
0
 10
-42.5219
 20
6.34999
 11
-26.7602
 21
33.65
  0
LINE
  8
0
 10
-100.442
 20
8.88998
 11
-116.203
 21
36.19
  0
LINE
  8
0
 10
-116.203
 20
36.19
 11
-120.603
 21
33.65
  0
LINE
  8
0
 10
-120.603
 20
33.65
 11
-104.841
 21
6.34999
  0
LINE
  8
0
 10
-104.841
 20
6.34999
 11
-100.442
 21
8.88998
  0
LINE
  8
0
 10
89.4431
 20
2.53999
 11
57.9198
 21
2.53999
  0
LINE
  8
0
 10
57.9198
 20
2.53999
 11
57.9198
 21
-2.53999
  0
LINE
  8
0
 10
57.9198
 20
-2.53999
 11
89.4431
 21
-2.53999
  0
LINE
  8
0
 10
89.4431
 20
-2.53999
 11
89.4431
 21
2.53999
  0
LINE
  8
0
 10
-57.9198
 20
2.53999
 11
-89.4431
 21
2.53999
  0
LINE
  8
0
 10
-89.4431
 20
2.53999
 11
-89.4431
 21
-2.53999
  0
LINE
  8
0
 10
-89.4431
 20
-2.53999
 11
-57.9198
 21
-2.53999
  0
LINE
  8
0
 10
-57.9198
 20
-2.53999
 11
-57.9198
 21
2.53999
  0
LINE
  8
0
 10
-26.7602
 20
-33.65
 11
-42.5219
 21
-6.34999
  0
LINE
  8
0
 10
-42.5219
 20
-6.34999
 11
-46.9212
 21
-8.88998
  0
LINE
  8
0
 10
-46.9212
 20
-8.88998
 11
-31.1596
 21
-36.19
  0
LINE
  8
0
 10
-31.1596
 20
-36.19
 11
-26.7602
 21
-33.65
  0
LINE
  8
0
 10
-100.442
 20
-8.88998
 11
-104.841
 21
-6.34999
  0
LINE
  8
0
 10
-104.841
 20
-6.34999
 11
-120.603
 21
-33.65
  0
LINE
  8
0
 10
-120.603
 20
-33.65
 11
-116.203
 21
-36.19
  0
LINE
  8
0
 10
-116.203
 20
-36.19
 11
-100.442
 21
-8.88998
  0
LINE
  8
0
 10
46.9212
 20
-8.88998
 11
42.5219
 21
-6.34999
  0
LINE
  8
0
 10
42.5219
 20
-6.34999
 11
26.7602
 21
-33.65
  0
LINE
  8
0
 10
26.7602
 20
-33.65
 11
31.1596
 21
-36.19
  0
LINE
  8
0
 10
31.1596
 20
-36.19
 11
46.9212
 21
-8.88998
  0
LINE
  8
0
 10
120.603
 20
-33.65
 11
104.841
 21
-6.34999
  0
LINE
  8
0
 10
104.841
 20
-6.34999
 11
100.442
 21
-8.88998
  0
LINE
  8
0
 10
100.442
 20
-8.88998
 11
116.203
 21
-36.19
  0
LINE
  8
0
 10
116.203
 20
-36.19
 11
120.603
 21
-33.65
  0
LINE
  8
0
 10
-131.601
 20
-40
 11
-163.125
 21
-40
  0
LINE
  8
0
 10
-163.125
 20
-40
 11
-163.125
 21
-45.08
  0
LINE
  8
0
 10
-163.125
 20
-45.08
 11
-131.601
 21
-45.08
  0
LINE
  8
0
 10
-131.601
 20
-45.08
 11
-131.601
 21
-40
  0
LINE
  8
0
 10
15.7617
 20
-40
 11
-15.7617
 21
-40
  0
LINE
  8
0
 10
-15.7617
 20
-40
 11
-15.7617
 21
-45.08
  0
LINE
  8
0
 10
-15.7617
 20
-45.08
 11
15.7617
 21
-45.08
  0
LINE
  8
0
 10
15.7617
 20
-45.08
 11
15.7617
 21
-40
  0
LINE
  8
0
 10
163.125
 20
-40
 11
131.601
 21
-40
  0
LINE
  8
0
 10
131.601
 20
-40
 11
131.601
 21
-45.08
  0
LINE
  8
0
 10
131.601
 20
-45.08
 11
163.125
 21
-45.08
  0
LINE
  8
0
 10
163.125
 20
-45.08
 11
163.125
 21
-40
  0
LINE
  8
0
 10
-100.442
 20
-76.19
 11
-116.203
 21
-48.89
  0
LINE
  8
0
 10
-116.203
 20
-48.89
 11
-120.603
 21
-51.43
  0
LINE
  8
0
 10
-120.603
 20
-51.43
 11
-104.841
 21
-78.73
  0
LINE
  8
0
 10
-104.841
 20
-78.73
 11
-100.442
 21
-76.19
  0
LINE
  8
0
 10
46.9212
 20
-76.19
 11
31.1596
 21
-48.89
  0
LINE
  8
0
 10
31.1596
 20
-48.89
 11
26.7602
 21
-51.43
  0
LINE
  8
0
 10
26.7602
 20
-51.43
 11
42.5219
 21
-78.73
  0
LINE
  8
0
 10
42.5219
 20
-78.73
 11
46.9212
 21
-76.19
  0
LINE
  8
0
 10
120.603
 20
-51.43
 11
116.203
 21
-48.89
  0
LINE
  8
0
 10
116.203
 20
-48.89
 11
100.442
 21
-76.19
  0
LINE
  8
0
 10
100.442
 20
-76.19
 11
104.841
 21
-78.73
  0
LINE
  8
0
 10
104.841
 20
-78.73
 11
120.603
 21
-51.43
  0
LINE
  8
0
 10
-26.7602
 20
-51.43
 11
-31.1596
 21
-48.89
  0
LINE
  8
0
 10
-31.1596
 20
-48.89
 11
-46.9212
 21
-76.19
  0
LINE
  8
0
 10
-46.9212
 20
-76.19
 11
-42.5219
 21
-78.73
  0
LINE
  8
0
 10
-42.5219
 20
-78.73
 11
-26.7602
 21
-51.43
  0
LINE
  8
0
 10
89.4431
 20
-82.54
 11
57.9198
 21
-82.54
  0
LINE
  8
0
 10
57.9198
 20
-82.54
 11
57.9198
 21
-87.62
  0
LINE
  8
0
 10
57.9198
 20
-87.62
 11
89.4431
 21
-87.62
  0
LINE
  8
0
 10
89.4431
 20
-87.62
 11
89.4431
 21
-82.54
  0
LINE
  8
0
 10
-57.9198
 20
-82.54
 11
-89.4431
 21
-82.54
  0
LINE
  8
0
 10
-89.4431
 20
-82.54
 11
-89.4431
 21
-87.62
  0
LINE
  8
0
 10
-89.4431
 20
-87.62
 11
-57.9198
 21
-87.62
  0
LINE
  8
0
 10
-57.9198
 20
-87.62
 11
-57.9198
 21
-82.54
  0
LINE
  8
0
 10
-100.442
 20
-93.97
 11
-104.841
 21
-91.43
  0
LINE
  8
0
 10
-104.841
 20
-91.43
 11
-120.603
 21
-118.73
  0
LINE
  8
0
 10
-120.603
 20
-118.73
 11
-116.203
 21
-121.27
  0
LINE
  8
0
 10
-116.203
 20
-121.27
 11
-100.442
 21
-93.97
  0
LINE
  8
0
 10
-26.7602
 20
-118.73
 11
-42.5218
 21
-91.43
  0
LINE
  8
0
 10
-42.5218
 20
-91.43
 11
-46.9212
 21
-93.97
  0
LINE
  8
0
 10
-46.9212
 20
-93.97
 11
-31.1596
 21
-121.27
  0
LINE
  8
0
 10
-31.1596
 20
-121.27
 11
-26.7602
 21
-118.73
  0
LINE
  8
0
 10
46.9212
 20
-93.97
 11
42.5218
 21
-91.43
  0
LINE
  8
0
 10
42.5218
 20
-91.43
 11
26.7602
 21
-118.73
  0
LINE
  8
0
 10
26.7602
 20
-118.73
 11
31.1596
 21
-121.27
  0
LINE
  8
0
 10
31.1596
 20
-121.27
 11
46.9212
 21
-93.97
  0
LINE
  8
0
 10
120.603
 20
-118.73
 11
104.841
 21
-91.43
  0
LINE
  8
0
 10
104.841
 20
-91.43
 11
100.442
 21
-93.97
  0
LINE
  8
0
 10
100.442
 20
-93.97
 11
116.203
 21
-121.27
  0
LINE
  8
0
 10
116.203
 20
-121.27
 11
120.603
 21
-118.73
  0
LINE
  8
0
 10
15.7617
 20
-125.08
 11
-15.7617
 21
-125.08
  0
LINE
  8
0
 10
-15.7617
 20
-125.08
 11
-15.7617
 21
-130.16
  0
LINE
  8
0
 10
-15.7617
 20
-130.16
 11
15.7617
 21
-130.16
  0
LINE
  8
0
 10
15.7617
 20
-130.16
 11
15.7617
 21
-125.08
  0
LINE
  8
0
 10
46.9212
 20
-161.27
 11
31.1596
 21
-133.97
  0
LINE
  8
0
 10
31.1596
 20
-133.97
 11
26.7602
 21
-136.51
  0
LINE
  8
0
 10
26.7602
 20
-136.51
 11
42.5219
 21
-163.81
  0
LINE
  8
0
 10
42.5219
 20
-163.81
 11
46.9212
 21
-161.27
  0
LINE
  8
0
 10
-26.7602
 20
-136.51
 11
-31.1596
 21
-133.97
  0
LINE
  8
0
 10
-31.1596
 20
-133.97
 11
-46.9212
 21
-161.27
  0
LINE
  8
0
 10
-46.9212
 20
-161.27
 11
-42.5219
 21
-163.81
  0
LINE
  8
0
 10
-42.5219
 20
-163.81
 11
-26.7602
 21
-136.51
  0
LINE
  8
0
 10
-130.324
 20
145.312
 11
-146.268
 21
154.517
  0
LINE
  8
0
 10
-146.268
 20
154.517
 11
-146.451
 21
155.2
  0
LINE
  8
0
 10
-146.451
 20
155.2
 11
-133.951
 21
176.85
  0
LINE
  8
0
 10
-133.951
 20
176.85
 11
-133.268
 21
177.033
  0
LINE
  8
0
 10
-133.268
 20
177.033
 11
-111.617
 21
164.533
  0
LINE
  8
0
 10
-111.617
 20
164.533
 11
-111.378
 21
163.997
  0
LINE
  8
0
 10
-111.378
 20
163.997
 11
-113.902
 21
152.025
  0
LINE
  8
0
 10
-113.902
 20
152.025
 11
-114.203
 21
151.665
  0
LINE
  8
0
 10
-114.203
 20
151.665
 11
-129.886
 21
145.282
  0
LINE
  8
0
 10
-129.886
 20
145.282
 11
-130.324
 21
145.312
  0
LINE
  8
0
 10
124.033
 20
142.078
 11
114.927
 21
150.249
  0
LINE
  8
0
 10
114.927
 20
150.249
 11
114.766
 21
150.69
  0
LINE
  8
0
 10
114.766
 20
150.69
 11
117.079
 21
167.464
  0
LINE
  8
0
 10
117.079
 20
167.464
 11
117.324
 21
167.828
  0
LINE
  8
0
 10
117.324
 20
167.828
 11
133.268
 21
177.033
  0
LINE
  8
0
 10
133.268
 20
177.033
 11
133.951
 21
176.85
  0
LINE
  8
0
 10
133.951
 20
176.85
 11
146.451
 21
155.2
  0
LINE
  8
0
 10
146.451
 20
155.2
 11
146.268
 21
154.517
  0
LINE
  8
0
 10
146.268
 20
154.517
 11
124.617
 21
142.017
  0
LINE
  8
0
 10
124.617
 20
142.017
 11
124.033
 21
142.078
  0
LINE
  8
0
 10
-204.006
 20
17.6917
 11
-219.949
 21
26.8967
  0
LINE
  8
0
 10
-219.949
 20
26.8967
 11
-220.132
 21
27.5797
  0
LINE
  8
0
 10
-220.132
 20
27.5797
 11
-207.632
 21
49.2303
  0
LINE
  8
0
 10
-207.632
 20
49.2303
 11
-206.949
 21
49.4133
  0
LINE
  8
0
 10
-206.949
 20
49.4133
 11
-185.299
 21
36.9133
  0
LINE
  8
0
 10
-185.299
 20
36.9133
 11
-185.059
 21
36.3772
  0
LINE
  8
0
 10
-185.059
 20
36.3772
 11
-187.583
 21
24.4053
  0
LINE
  8
0
 10
-187.583
 20
24.4053
 11
-187.884
 21
24.0453
  0
LINE
  8
0
 10
-187.884
 20
24.0453
 11
-203.567
 21
17.6616
  0
LINE
  8
0
 10
-203.567
 20
17.6616
 11
-204.006
 21
17.6917
  0
LINE
  8
0
 10
197.715
 20
14.4576
 11
188.609
 21
22.6294
  0
LINE
  8
0
 10
188.609
 20
22.6294
 11
188.447
 21
23.0699
  0
LINE
  8
0
 10
188.447
 20
23.0699
 11
190.76
 21
39.8436
  0
LINE
  8
0
 10
190.76
 20
39.8436
 11
191.006
 21
40.2083
  0
LINE
  8
0
 10
191.006
 20
40.2083
 11
206.949
 21
49.4133
  0
LINE
  8
0
 10
206.949
 20
49.4133
 11
207.632
 21
49.2303
  0
LINE
  8
0
 10
207.632
 20
49.2303
 11
220.132
 21
27.5797
  0
LINE
  8
0
 10
220.132
 20
27.5797
 11
219.949
 21
26.8967
  0
LINE
  8
0
 10
219.949
 20
26.8967
 11
198.299
 21
14.3967
  0
LINE
  8
0
 10
198.299
 20
14.3967
 11
197.715
 21
14.4576
  0
LINE
  8
0
 10
-207.632
 20
-134.31
 11
-220.132
 21
-112.66
  0
LINE
  8
0
 10
-220.132
 20
-112.66
 11
-219.949
 21
-111.977
  0
LINE
  8
0
 10
-219.949
 20
-111.977
 11
-198.299
 21
-99.4767
  0
LINE
  8
0
 10
-198.299
 20
-99.4767
 11
-197.715
 21
-99.5376
  0
LINE
  8
0
 10
-197.715
 20
-99.5376
 11
-188.609
 21
-107.709
  0
LINE
  8
0
 10
-188.609
 20
-107.709
 11
-188.447
 21
-108.15
  0
LINE
  8
0
 10
-188.447
 20
-108.15
 11
-190.76
 21
-124.924
  0
LINE
  8
0
 10
-190.76
 20
-124.924
 11
-191.006
 21
-125.288
  0
LINE
  8
0
 10
-191.006
 20
-125.288
 11
-206.949
 21
-134.493
  0
LINE
  8
0
 10
-206.949
 20
-134.493
 11
-207.632
 21
-134.31
  0
LINE
  8
0
 10
185.299
 20
-121.993
 11
185.059
 21
-121.457
  0
LINE
  8
0
 10
185.059
 20
-121.457
 11
187.583
 21
-109.485
  0
LINE
  8
0
 10
187.583
 20
-109.485
 11
187.884
 21
-109.125
  0
LINE
  8
0
 10
187.884
 20
-109.125
 11
203.567
 21
-102.742
  0
LINE
  8
0
 10
203.567
 20
-102.742
 11
204.006
 21
-102.772
  0
LINE
  8
0
 10
204.006
 20
-102.772
 11
219.949
 21
-111.977
  0
LINE
  8
0
 10
219.949
 20
-111.977
 11
220.132
 21
-112.66
  0
LINE
  8
0
 10
220.132
 20
-112.66
 11
207.632
 21
-134.31
  0
LINE
  8
0
 10
207.632
 20
-134.31
 11
206.949
 21
-134.493
  0
LINE
  8
0
 10
206.949
 20
-134.493
 11
185.299
 21
-121.993
  0
LINE
  8
0
 10
61.1814
 20
-204.43
 11
60.6814
 21
-203.93
  0
LINE
  8
0
 10
60.6814
 20
-203.93
 11
60.6814
 21
-178.93
  0
LINE
  8
0
 10
60.6814
 20
-178.93
 11
61.0261
 21
-178.455
  0
LINE
  8
0
 10
61.0261
 20
-178.455
 11
72.6561
 21
-174.655
  0
LINE
  8
0
 10
72.6561
 20
-174.655
 11
73.1182
 21
-174.735
  0
LINE
  8
0
 10
73.1182
 20
-174.735
 11
86.4882
 21
-185.125
  0
LINE
  8
0
 10
86.4882
 20
-185.125
 11
86.6814
 21
-185.52
  0
LINE
  8
0
 10
86.6814
 20
-185.52
 11
86.6814
 21
-203.93
  0
LINE
  8
0
 10
86.6814
 20
-203.93
 11
86.1814
 21
-204.43
  0
LINE
  8
0
 10
86.1814
 20
-204.43
 11
61.1814
 21
-204.43
  0
LINE
  8
0
 10
-86.1814
 20
-204.43
 11
-86.6814
 21
-203.93
  0
LINE
  8
0
 10
-86.6814
 20
-203.93
 11
-86.6814
 21
-178.93
  0
LINE
  8
0
 10
-86.6814
 20
-178.93
 11
-86.3367
 21
-178.455
  0
LINE
  8
0
 10
-86.3367
 20
-178.455
 11
-74.7067
 21
-174.655
  0
LINE
  8
0
 10
-74.7067
 20
-174.655
 11
-74.2446
 21
-174.735
  0
LINE
  8
0
 10
-74.2446
 20
-174.735
 11
-60.8746
 21
-185.125
  0
LINE
  8
0
 10
-60.8746
 20
-185.125
 11
-60.6814
 21
-185.52
  0
LINE
  8
0
 10
-60.6814
 20
-185.52
 11
-60.6814
 21
-203.93
  0
LINE
  8
0
 10
-60.6814
 20
-203.93
 11
-61.1814
 21
-204.43
  0
LINE
  8
0
 10
-61.1814
 20
-204.43
 11
-86.1814
 21
-204.43
  0
ENDSEC
  0
SECTION
  2
OBJECTS
  0
DICTIONARY
  0
ENDSEC
  0
EOF
